<svg width="104" height="84" viewBox="0 0 104 84" fill="none" xmlns="http://www.w3.org/2000/svg">
<path d="M30.3334 81V76.6667C30.3334 64.7006 40.0339 55 52 55C63.9661 55 73.6667 64.7006 73.6667 76.6667V81" stroke="#873A47" stroke-width="4.8" stroke-linecap="round" stroke-linejoin="round"/>
<path d="M4.33337 81V76.6666C4.33337 69.4867 10.1537 63.6666 17.3334 63.6666" stroke="#873A47" stroke-width="4.8" stroke-linecap="round" stroke-linejoin="round"/>
<path d="M99.6666 81V76.6666C99.6666 69.4867 93.8465 63.6666 86.6666 63.6666" stroke="#873A47" stroke-width="4.8" stroke-linecap="round" stroke-linejoin="round"/>
<path d="M52 55C59.1799 55 65 49.1799 65 42C65 34.8203 59.1799 29 52 29C44.8201 29 39 34.8203 39 42C39 49.1799 44.8201 55 52 55Z" stroke="#873A47" stroke-width="4.8" stroke-linecap="round" stroke-linejoin="round"/>
<path d="M17.3333 63.6667C22.1198 63.6667 26 59.7866 26 55C26 50.2134 22.1198 46.3334 17.3333 46.3334C12.5468 46.3334 8.66663 50.2134 8.66663 55C8.66663 59.7866 12.5468 63.6667 17.3333 63.6667Z" stroke="#873A47" stroke-width="4.8" stroke-linecap="round" stroke-linejoin="round"/>
<path d="M86.6667 63.6667C91.4533 63.6667 95.3333 59.7866 95.3333 55C95.3333 50.2134 91.4533 46.3334 86.6667 46.3334C81.8801 46.3334 78 50.2134 78 55C78 59.7866 81.8801 63.6667 86.6667 63.6667Z" stroke="#873A47" stroke-width="4.8" stroke-linecap="round" stroke-linejoin="round"/>
</svg>
