<?xml version="1.0" encoding="UTF-8"?>
<svg id="Layer_2" data-name="Layer 2" xmlns="http://www.w3.org/2000/svg" viewBox="0 0 327 326.79">
  <defs>
    <style>
      .cls-1 {
        fill: #cc921f;
      }
    </style>
  </defs>
  <g id="Layer_1-2" data-name="Layer 1">
    <path class="cls-1" d="M146.17,326.79c-6.49-.67-12.99-1.74-19.33-3.17l12.37-54.62c4.17.95,8.45,1.65,12.72,2.09l-5.76,55.7ZM194.88,324.59l-10.78-54.95c4.2-.82,8.39-1.91,12.45-3.23l17.32,53.26c-6.2,2.01-12.59,3.67-18.99,4.93ZM81.33,305.79c-5.63-3.25-11.13-6.89-16.35-10.79l33.59-44.81c3.44,2.58,7.06,4.97,10.77,7.11l-28.01,48.49ZM257.54,297.77l-32.29-45.75c3.5-2.47,6.9-5.19,10.09-8.06l37.49,41.6c-4.83,4.36-9.98,8.47-15.29,12.22ZM30.71,260.27c-3.84-5.26-7.4-10.81-10.57-16.48l48.86-27.36c2.09,3.73,4.43,7.39,6.96,10.85l-45.25,32.99ZM303.83,247.87l-48.05-28.76c2.2-3.68,4.2-7.53,5.95-11.44l51.15,22.8c-2.65,5.95-5.7,11.8-9.04,17.4ZM2.92,198.04c-1.35-6.36-2.33-12.88-2.92-19.37l55.78-5.02c.38,4.28,1.03,8.57,1.92,12.75l-54.78,11.64ZM325.85,183.35l-55.61-6.61c.51-4.25.76-8.59.76-12.91v-.3h56v.3c0,6.51-.39,13.08-1.15,19.52ZM57.64,141.51l-54.8-11.52c1.34-6.39,3.09-12.76,5.19-18.93l53.02,18.04c-1.38,4.05-2.52,8.23-3.4,12.42ZM266.18,131.81c-1.27-4.08-2.8-8.14-4.55-12.04l51.1-22.92c2.67,5.95,5,12.12,6.93,18.35l-53.48,16.6ZM75.83,100.58l-45.32-32.9c3.82-5.26,8-10.35,12.42-15.13l41.09,38.04c-2.92,3.15-5.68,6.51-8.2,9.98ZM244.25,92.74c-2.83-3.23-5.89-6.32-9.08-9.18l37.41-41.68c4.84,4.34,9.47,9.02,13.76,13.91l-42.08,36.95ZM109.14,70.49l-28.11-48.43c5.64-3.27,11.53-6.23,17.51-8.8l22.11,51.45c-3.92,1.69-7.79,3.63-11.5,5.78ZM208.31,65.87c-3.88-1.79-7.92-3.37-11.99-4.68l17.19-53.3c6.21,2,12.36,4.41,18.29,7.14l-23.49,50.84ZM151.68,56.6L145.81.91c6.45-.68,13.06-.98,19.53-.9l-.73,56c-4.3-.06-8.66.14-12.92.59Z"/>
  </g>
</svg>