<?xml version="1.0" encoding="UTF-8"?>
<svg id="Layer_2" data-name="Layer 2" xmlns="http://www.w3.org/2000/svg" viewBox="0 0 250.47 250.16">
  <defs>
    <style>
      .cls-1 {
        fill: #cc921f;
      }
    </style>
  </defs>
  <g id="Layer_1-2" data-name="Layer 1">
    <path class="cls-1" d="M106.99,250.16c-6.77-.96-13.5-2.49-20.01-4.53l16.82-53.42c3.59,1.13,7.31,1.97,11.05,2.5l-7.86,55.45ZM157.76,247.03l-14.67-54.04c3.64-.99,7.22-2.28,10.65-3.85l23.32,50.92c-6.21,2.85-12.71,5.2-19.3,6.98ZM42.51,220.77c-5.15-4.46-9.97-9.37-14.33-14.6l43.01-35.87c2.43,2.91,5.11,5.65,7.98,8.13l-36.66,42.34ZM218.09,209.93l-41.57-37.53c2.54-2.82,4.87-5.86,6.92-9.04l47.09,30.31c-3.69,5.73-7.87,11.19-12.44,16.26ZM4.16,161.24c-1.93-6.55-3.33-13.31-4.16-20.09l55.58-6.82c.46,3.75,1.23,7.48,2.29,11.09l-53.72,15.81ZM248.82,146.1l-55.27-9.04c.61-3.72.92-7.54.92-11.35v-.22h56v.22c0,6.83-.56,13.69-1.65,20.39ZM57.83,106.14l-53.76-15.69c1.91-6.55,4.38-13,7.35-19.16l50.47,24.26c-1.64,3.41-3,6.97-4.06,10.59ZM188.72,97.92c-1.5-3.46-3.31-6.82-5.36-10l47.02-30.41c3.71,5.73,6.97,11.81,9.69,18.06l-51.35,22.35ZM79.05,73.08L42.3,30.82c5.15-4.48,10.69-8.56,16.48-12.13l29.42,47.65c-3.22,1.99-6.3,4.26-9.16,6.74ZM163.52,67.75c-3.15-2.11-6.49-3.97-9.92-5.54l23.2-50.97c6.2,2.82,12.23,6.18,17.9,9.99l-31.18,46.52ZM114.69,56.72L106.7,1.29C113.42.32,120.32-.11,127.11.02l-1.03,55.99c-3.8-.07-7.65.17-11.38.71Z"/>
  </g>
</svg>