<?xml version="1.0" encoding="UTF-8"?>
<svg id="Layer_2" data-name="Layer 2" xmlns="http://www.w3.org/2000/svg" viewBox="0 0 169.4 165.12">
  <defs>
    <style>
      .cls-1 {
        fill: #cc921f;
      }
    </style>
  </defs>
  <g id="Layer_1-2" data-name="Layer 1">
    <path class="cls-1" d="M103.6,165.12l-12.46-54.6c2.78-.63,5.44-1.68,7.91-3.12l28.08,48.45c-7.34,4.26-15.26,7.37-23.53,9.26ZM42.43,155.95c-7.32-4.22-13.95-9.5-19.72-15.69l40.98-38.17c1.97,2.11,4.23,3.91,6.72,5.35l-27.98,48.51ZM165.67,107.48l-53.52-16.47c.84-2.72,1.26-5.57,1.26-8.47v-.23h56v.23c0,8.49-1.26,16.88-3.74,24.94ZM56,82.66H0v-.12c0-8.43,1.24-16.76,3.69-24.78l53.56,16.36c-.83,2.7-1.25,5.53-1.25,8.41v.12ZM105.68,62.95c-1.97-2.11-4.24-3.91-6.73-5.34l27.88-48.57c7.33,4.2,13.97,9.47,19.75,15.65l-40.9,38.25ZM70.3,57.7L42.12,9.31c7.34-4.27,15.25-7.4,23.51-9.31l12.57,54.57c-2.77.64-5.43,1.69-7.91,3.13Z"/>
  </g>
</svg>