<?xml version="1.0" encoding="UTF-8"?>
<svg id="Layer_2" data-name="Layer 2" xmlns="http://www.w3.org/2000/svg" viewBox="0 0 551.15 220.03">
  <defs>
    <style>
      .cls-1 {
        fill: #cc921f;
      }

      .cls-2 {
        fill: #fff;
      }
    </style>
  </defs>
  <g id="Layer_1-2" data-name="Layer 1">
    <g>
      <path class="cls-1" d="M275.58,0C123.38,0,0,98.51,0,220.03h551.15C551.15,98.51,427.77,0,275.58,0Z"/>
      <g>
        <path class="cls-2" d="M215.9,177.22h-32.94l-25.25-39.16v39.16h-26.46v-101.8h41.18c5.67,0,10.62.83,14.85,2.5,4.23,1.67,7.72,3.94,10.46,6.82,2.74,2.88,4.81,6.21,6.21,9.99,1.39,3.78,2.09,7.83,2.09,12.15,0,7.74-1.87,14.02-5.6,18.84-3.74,4.82-9.25,8.08-16.54,9.79l32,41.72ZM157.71,120.92h5c5.22,0,9.23-1.08,12.02-3.24,2.79-2.16,4.19-5.27,4.19-9.32s-1.4-7.16-4.19-9.32c-2.79-2.16-6.8-3.24-12.02-3.24h-5v25.11Z"/>
        <path class="cls-2" d="M253.43,75.42v101.8h-26.46v-101.8h26.46Z"/>
        <path class="cls-2" d="M330.66,101.47c-2.88-2.34-5.76-4.07-8.64-5.2-2.88-1.12-5.67-1.69-8.37-1.69-3.42,0-6.21.81-8.37,2.43s-3.24,3.74-3.24,6.35c0,1.8.54,3.29,1.62,4.46,1.08,1.17,2.5,2.18,4.25,3.04,1.76.86,3.73,1.6,5.94,2.23,2.2.63,4.39,1.31,6.55,2.02,8.64,2.88,14.96,6.73,18.97,11.54,4,4.82,6.01,11.09,6.01,18.83,0,5.22-.88,9.95-2.63,14.18-1.75,4.23-4.32,7.85-7.7,10.87-3.38,3.02-7.52,5.36-12.42,7.02-4.91,1.67-10.46,2.5-16.67,2.5-12.87,0-24.8-3.83-35.78-11.48l11.34-21.33c3.96,3.51,7.88,6.12,11.75,7.83,3.87,1.71,7.7,2.57,11.48,2.57,4.32,0,7.54-.99,9.65-2.97,2.11-1.98,3.17-4.23,3.17-6.75,0-1.53-.27-2.86-.81-3.98-.54-1.12-1.44-2.16-2.7-3.11-1.26-.94-2.9-1.82-4.93-2.63-2.03-.81-4.48-1.71-7.36-2.7-3.42-1.08-6.77-2.27-10.06-3.58-3.29-1.3-6.21-3.04-8.78-5.2-2.57-2.16-4.64-4.88-6.21-8.17-1.58-3.29-2.36-7.45-2.36-12.49s.83-9.61,2.5-13.7c1.66-4.1,4-7.61,7.02-10.53,3.01-2.92,6.7-5.2,11.07-6.82,4.36-1.62,9.25-2.43,14.65-2.43,5.04,0,10.31.7,15.8,2.09,5.49,1.4,10.76,3.44,15.8,6.14l-10.53,20.66Z"/>
        <path class="cls-2" d="M419.91,97.83h-31.46v17.01h29.7v22.41h-29.7v17.55h31.46v22.41h-57.92v-101.8h57.92v22.41Z"/>
      </g>
    </g>
  </g>
</svg>