<svg width="320" height="245" viewBox="0 0 320 245" fill="none" xmlns="http://www.w3.org/2000/svg">
<g clip-path="url(#clip0_42_579)">
<path d="M98.8012 400C90.8624 399.18 82.9113 397.87 75.156 396.12L90.2875 329.264C95.3884 330.426 100.624 331.283 105.847 331.822L98.8012 400ZM158.385 397.307L145.199 330.047C150.336 329.043 155.462 327.709 160.428 326.093L181.615 391.285C174.031 393.745 166.214 395.777 158.385 397.32V397.307ZM19.4862 374.296C12.5994 370.318 5.87156 365.862 -0.513756 361.088L40.5749 306.24C44.7829 309.398 49.211 312.323 53.7492 314.942L19.4862 374.296ZM235.034 364.479L195.535 308.48C199.816 305.456 203.976 302.127 207.878 298.614L253.737 349.534C247.829 354.87 241.529 359.901 235.034 364.491V364.479ZM-42.4343 318.578C-47.1315 312.139 -51.4862 305.346 -55.3639 298.406L4.40367 264.916C6.96024 269.482 9.82262 273.962 12.9174 278.197L-42.4343 318.578ZM291.657 303.4L232.881 268.197C235.572 263.692 238.018 258.98 240.159 254.194L302.728 282.102C299.486 289.385 295.755 296.545 291.67 303.4H291.657ZM-76.4281 242.407C-78.0795 234.622 -79.2783 226.641 -80 218.697L-11.7676 212.553C-11.3028 217.791 -10.5076 223.042 -9.41896 228.159L-76.4281 242.407ZM318.593 224.426L250.569 216.335C251.193 211.133 251.498 205.82 251.498 200.533V200.165H320V200.533C320 208.501 319.523 216.543 318.593 224.426ZM-9.49236 173.212L-76.526 159.112C-74.8869 151.29 -72.7462 143.493 -70.1774 135.941L-5.32111 158.022C-7.00918 162.979 -8.40367 168.096 -9.48013 173.225L-9.49236 173.212ZM245.602 161.339C244.049 156.345 242.177 151.376 240.037 146.602L302.544 118.547C305.81 125.83 308.661 133.382 311.021 141.008L245.602 161.327V161.339ZM12.7584 123.113L-42.6789 82.8424C-38.0061 76.404 -32.893 70.1737 -27.4862 64.3228L22.7767 110.885C19.2049 114.741 15.8287 118.853 12.7462 123.101L12.7584 123.113ZM218.777 113.517C215.315 109.563 211.572 105.781 207.67 102.28L253.431 51.2625C259.352 56.5747 265.015 62.3032 270.263 68.2887L218.789 113.517H218.777ZM53.5046 86.2819L19.1193 27.0022C26.0183 22.9997 33.2232 19.3765 40.5382 16.2308L67.5841 79.207C62.789 81.2756 58.055 83.6502 53.5168 86.2819H53.5046ZM174.813 80.6269C170.067 78.4359 165.125 76.5019 160.147 74.8984L181.174 9.65775C188.771 12.1058 196.294 15.0557 203.547 18.3973L174.813 80.6269ZM105.541 69.2801L98.3609 1.11403C106.251 0.281696 114.336 -0.0855126 122.251 0.0124096L121.358 68.558C116.098 68.4845 110.765 68.7293 105.554 69.2801H105.541Z" fill="#CC921F"/>
</g>
<defs>
<clipPath id="clip0_42_579">
<rect width="400" height="400" fill="white" transform="translate(-80)"/>
</clipPath>
</defs>
</svg>
